<svg width="18" height="23" viewBox="0 0 18 23" fill="none" xmlns="http://www.w3.org/2000/svg"><path d="M8.64774 22.9995C8.28703 22.8915 7.90851 22.833 7.57451 22.671C6.35432 22.0769 5.69079 21.0824 5.57946 19.7144C5.57501 19.6784 5.57055 19.6424 5.5661 19.5794C5.47258 19.5794 5.38352 19.5794 5.29891 19.5794C3.79371 19.5794 2.29297 19.5794 0.78777 19.5794C0.346899 19.5794 0.0707979 19.3679 0.0129058 18.9989C-0.0227202 18.7559 0.0396252 18.5354 0.240021 18.4004C0.850115 17.9819 1.20192 17.3743 1.49138 16.7218C1.98569 15.6148 2.25289 14.4403 2.37312 13.2387C2.47555 12.2037 2.52899 11.1642 2.56016 10.1292C2.64477 7.43812 3.8516 5.46258 6.21182 4.21155C6.33651 4.14855 6.38104 4.07655 6.37659 3.93704C6.36768 3.44203 6.36768 2.94702 6.37659 2.45651C6.41222 1.14248 7.50326 0.0534595 8.80361 0.00845847C9.97481 -0.0320424 10.8566 0.422468 11.3954 1.49349C11.578 1.858 11.6359 2.25851 11.6359 2.66802C11.6359 3.08653 11.6448 3.50503 11.6314 3.92354C11.627 4.07205 11.676 4.14855 11.8051 4.21155C13.2524 4.93157 14.2856 6.04759 14.9268 7.54162C15.292 8.40114 15.4389 9.30116 15.4434 10.2327C15.4523 11.8977 15.577 13.5493 15.9822 15.1693C16.2049 16.0648 16.5166 16.9288 17.0644 17.6803C17.2514 17.9324 17.4874 18.1574 17.7368 18.3554C18.1287 18.6659 18.0886 19.2824 17.6344 19.4849C17.4963 19.5479 17.336 19.5704 17.1846 19.5704C15.6883 19.5749 14.192 19.5749 12.6957 19.5749C12.6156 19.5749 12.5354 19.5749 12.4419 19.5749C12.4107 20.2364 12.2504 20.8349 11.9031 21.3749C11.3286 22.2614 10.527 22.7925 9.48495 22.959C9.44487 22.9635 9.4048 22.986 9.36472 22.9995C9.11979 22.9995 8.88377 22.9995 8.64774 22.9995ZM15.7818 18.2249C15.7373 18.1394 15.7061 18.0809 15.675 18.0224C15.479 17.6128 15.2564 17.2123 15.0916 16.7893C14.4859 15.2098 14.2544 13.5583 14.1564 11.8797C14.1119 11.0652 14.143 10.2462 14.0495 9.43616C13.622 5.73258 9.5473 3.70754 6.38995 5.63358C4.76006 6.6281 3.91395 8.12214 3.89613 10.0572C3.88277 11.3757 3.82488 12.6897 3.61558 13.9903C3.38401 15.4393 3.00994 16.8388 2.26625 18.1124C2.24843 18.1394 2.24843 18.1754 2.23953 18.2159C6.75512 18.2249 11.2484 18.2249 15.7818 18.2249ZM6.91989 19.5884C6.89317 20.7044 7.90405 21.6719 9.04854 21.6449C10.1485 21.6224 11.1505 20.6144 11.0748 19.5884C9.69871 19.5884 8.3182 19.5884 6.91989 19.5884ZM10.2999 3.68504C10.2999 3.29803 10.3044 2.94252 10.2999 2.58701C10.2954 2.0605 10.0594 1.64649 9.57847 1.45299C9.07526 1.25499 8.54532 1.25499 8.12226 1.65549C7.94413 1.8265 7.77046 2.074 7.73928 2.30801C7.67694 2.75352 7.72147 3.21253 7.72147 3.68054C8.57649 3.50954 9.41816 3.50503 10.2999 3.68504Z" fill="#FCDCD9"/></svg>
