<svg width="20" height="20" viewBox="0 0 20 20" fill="none" xmlns="http://www.w3.org/2000/svg"><path d="M19.0339 7.28491C18.6973 6.96069 18.1562 6.96069 17.8236 7.28882L7.54748 17.3591C6.21287 18.6599 4.04863 18.6599 2.71402 17.3591C1.37941 16.0583 1.37941 13.9451 2.71402 12.6443L13.2947 2.2771C14.1283 1.4646 15.479 1.4646 16.3166 2.2771C17.1503 3.0896 17.1503 4.40991 16.3166 5.22241L7.54748 13.7654C7.21483 14.0896 6.67377 14.0896 6.34112 13.7654C6.00847 13.4412 6.00847 12.9138 6.34112 12.5857L10.5734 8.46069C10.906 8.13647 10.906 7.60913 10.5734 7.28101C10.2407 6.95679 9.69969 6.95679 9.36303 7.28101L5.13075 11.4099C4.12879 12.3865 4.12879 13.9685 5.13075 14.9451C6.13271 15.9216 7.75588 15.9216 8.75784 14.9451L8.76185 14.9412L17.523 6.4021C19.0259 4.93726 19.0259 2.56226 17.523 1.09741C16.02 -0.367432 13.5833 -0.367432 12.0843 1.09741L1.50366 11.4646C-0.496255 13.4138 -0.496255 16.5818 1.50366 18.5349C3.50758 20.488 6.75392 20.488 8.75784 18.5349L19.0379 8.46069C19.3706 8.13647 19.3706 7.60913 19.0339 7.28491Z" fill="black" fill-opacity="0.2"/></svg>
