<svg width="9" height="5" viewBox="0 0 9 5" fill="none" xmlns="http://www.w3.org/2000/svg"><path d="M8.99912 0.732232C8.94726 0.909068 8.82958 1.03927 8.69793 1.16558C7.45524 2.37428 6.21455 3.58299 4.97386 4.79364C4.77439 4.98991 4.53902 5.05015 4.27373 4.95687C4.18995 4.92772 4.10817 4.87137 4.04434 4.80919C2.76176 3.55967 1.47718 2.30821 0.196599 1.05676C-0.0686938 0.796359 -0.0647044 0.421311 0.192609 0.17063C0.437955 -0.0664469 0.834897 -0.0567306 1.09421 0.195893C2.20325 1.2744 3.31029 2.35291 4.41535 3.43336C4.44128 3.45862 4.45923 3.48971 4.48317 3.52469C4.52905 3.48194 4.55897 3.45668 4.5849 3.42947C5.69793 2.34902 6.80697 1.26857 7.91801 0.18812C8.21322 -0.0994823 8.69194 -0.0509008 8.90537 0.287226C8.94527 0.351353 8.9692 0.42714 9.00112 0.499041C8.99912 0.576771 8.99912 0.654502 8.99912 0.732232Z" fill="#FCDCD9"/></svg>
