<svg width="28" height="28" viewBox="0 0 28 28" fill="none" xmlns="http://www.w3.org/2000/svg">
<path d="M0 24.5844C0 17.587 0 10.5837 0 3.58624C0.0929687 3.27727 0.147656 2.95686 0.284375 2.67078C0.902344 1.32621 1.95234 0.67395 3.36875 0.67395C10.4562 0.67395 17.5437 0.67395 24.6258 0.67395C24.7242 0.67395 24.8281 0.67395 24.9266 0.679672C26.0367 0.765496 26.9281 1.26327 27.4914 2.27027C27.7266 2.68795 27.8305 3.18 27.9945 3.63773C27.9945 10.6181 27.9945 17.5984 27.9945 24.5787C27.9781 24.6131 27.9562 24.6474 27.9508 24.6817C27.6227 26.4268 26.3867 27.5368 24.6914 27.5425C17.5602 27.554 10.4234 27.554 3.29219 27.5425C1.91406 27.5425 0.885937 26.8788 0.284375 25.5571C0.153125 25.2539 0.0929687 24.9106 0 24.5844ZM1.75 6.79604C1.75 6.92192 1.75 7.01347 1.75 7.11073C1.75 12.7522 1.75 18.3994 1.75 24.0409C1.75 25.0822 2.35156 25.7116 3.35234 25.7116C10.4508 25.7116 17.5492 25.7116 24.6477 25.7116C25.643 25.7116 26.25 25.0708 26.25 24.0352C26.25 18.3937 26.25 12.7465 26.25 7.10501C26.25 7.00202 26.25 6.90476 26.25 6.79604C18.0687 6.79604 9.92578 6.79604 1.75 6.79604ZM26.25 4.94225C26.25 4.60468 26.2664 4.30143 26.2445 3.99819C26.2062 3.37454 25.9328 2.89392 25.3805 2.65362C25.1289 2.54491 24.8336 2.51058 24.5547 2.51058C17.5219 2.50486 10.4836 2.50486 3.45078 2.50486C3.29766 2.50486 3.13906 2.51058 2.98594 2.53347C2.37891 2.63073 1.95234 2.99691 1.81562 3.61484C1.72266 4.03824 1.75547 4.49597 1.72812 4.93653C9.93125 4.94225 18.0797 4.94225 26.25 4.94225Z" fill="#FCDCD9"/>
<path d="M10.4235 16.5571C9.41175 15.4986 8.42737 14.4687 7.443 13.4389C7.34456 13.3359 7.25159 13.2329 7.16956 13.1184C6.91253 12.7408 6.95081 12.2602 7.25706 11.9455C7.56878 11.6194 8.01175 11.5793 8.37815 11.8483C8.46018 11.9055 8.53128 11.9798 8.60237 12.0542C9.78909 13.2958 10.9758 14.5317 12.1625 15.7733C12.6711 16.3054 12.6711 16.7974 12.1625 17.3353C10.9594 18.594 9.75628 19.8585 8.54221 21.1115C8.00628 21.6665 7.21331 21.472 7.02737 20.7453C6.92893 20.362 7.07659 20.0587 7.33362 19.7955C8.29065 18.8 9.24221 17.7987 10.1938 16.8031C10.2649 16.7288 10.336 16.6487 10.4235 16.5571Z" fill="#FCDCD9"/>
<path d="M17.4836 21.4376C16.6469 21.4376 15.8102 21.4376 14.968 21.4376C14.3937 21.4376 13.9945 21.0485 14 20.5107C14.0055 19.9843 14.3992 19.6067 14.957 19.6067C16.6523 19.6067 18.3477 19.6067 20.0375 19.6067C20.5953 19.6067 20.9891 19.99 20.9891 20.5164C20.9945 21.0428 20.5953 21.4319 20.043 21.4376C19.1953 21.4376 18.3422 21.4376 17.4836 21.4376Z" fill="#FCDCD9"/>
</svg>
