<svg width="33" height="33" viewBox="0 0 33 33" fill="none" xmlns="http://www.w3.org/2000/svg"><path d="M0 18.6914C0.225586 18.0469 0.696094 17.8406 1.35352 17.8535C2.62969 17.8793 3.90586 17.86 5.15625 17.86C5.35605 17.2928 5.49141 16.7191 5.74277 16.21C6.89648 13.8316 8.81074 12.4717 11.4533 12.4008C14.8113 12.3105 18.1758 12.3363 21.5402 12.3879C24.5502 12.433 27.0574 14.5922 27.6955 17.5764C27.7471 17.8084 27.818 17.8728 28.0436 17.8664C28.6301 17.8535 29.223 17.86 29.9127 17.86C29.7709 17.2476 29.6807 16.674 29.5002 16.1197C28.991 14.5664 28.0693 13.2967 26.7867 12.2912C26.5998 12.143 26.4516 12.1043 26.2131 12.201C25.2914 12.5684 24.2988 12.2654 23.751 11.4855C23.216 10.725 23.2547 9.66151 23.8928 8.95253C24.4471 8.34667 25.1496 8.08241 25.9617 8.32089C26.7932 8.55937 27.3088 9.12011 27.4764 9.98378C27.5021 10.132 27.5924 10.3125 27.7084 10.3963C30.177 12.2139 31.6014 14.6309 31.9172 17.6924C31.9236 17.7375 31.9365 17.7762 31.9494 17.8406C32.4973 17.8664 32.8195 18.1887 33.0064 18.6785C33.0064 18.8267 33.0064 18.9814 33.0064 19.1297C32.9871 19.1555 32.9613 19.1748 32.9549 19.207C32.0654 21.6627 31.176 24.1184 30.2865 26.574C30.0223 27.2959 29.7387 27.4957 28.9717 27.4957C27.4377 27.4957 25.9037 27.4957 24.3697 27.4957C24.2021 27.4957 24.0732 27.4828 24.041 27.7277C23.8412 29.0941 23.6092 30.4605 23.4223 31.8269C23.3449 32.3941 23.1193 32.7937 22.5715 32.9871C22.4232 32.9871 22.2686 32.9871 22.1203 32.9871C21.4436 32.6455 21.2566 32.3039 21.3598 31.6143C21.6949 29.4551 22.0301 27.2894 22.3652 25.1303C22.4168 24.7758 22.4684 24.4213 22.5135 24.0603C18.4852 24.0603 14.5084 24.0603 10.5252 24.0603C10.5252 24.157 10.5123 24.2279 10.5252 24.3053C10.8926 26.7029 11.26 29.0941 11.6338 31.4918C11.7627 32.3232 11.6338 32.6133 10.899 32.9935C10.725 32.9935 10.5574 32.9935 10.3834 32.9935C9.93223 32.8002 9.6873 32.465 9.61641 31.9752C9.41016 30.583 9.18457 29.1973 8.98477 27.8115C8.94609 27.5537 8.85586 27.5021 8.62383 27.5086C7.07051 27.515 5.51074 27.515 3.95098 27.515C3.28711 27.515 2.99063 27.3023 2.76504 26.6836C2.33965 25.517 1.91426 24.3504 1.48887 23.1773C0.992578 21.8303 0.496289 20.4896 0 19.1426C0 18.9943 0 18.8396 0 18.6914ZM30.4863 19.9482C21.1471 19.9482 11.8465 19.9482 2.5459 19.9482C2.5459 19.9869 2.53945 20.0127 2.5459 20.032C3.17754 21.7723 3.81563 23.5189 4.43438 25.2656C4.50527 25.4654 4.63418 25.4525 4.78242 25.4525C5.95547 25.4525 7.12207 25.4525 8.29512 25.4525C8.38535 25.4525 8.47559 25.4396 8.60449 25.4332C8.50137 24.7435 8.40469 24.0926 8.30801 23.4351C8.16621 22.4748 8.57227 21.9978 9.55195 21.9978C14.1797 21.9978 18.8074 21.9978 23.4352 21.9978C23.5125 21.9978 23.5834 21.9978 23.6607 21.9978C24.4213 22.043 24.8467 22.5779 24.7178 23.3256C24.692 23.4738 24.6727 23.6221 24.6469 23.7703C24.5631 24.3182 24.4857 24.866 24.3955 25.4525C24.5502 25.4525 24.6533 25.4525 24.7564 25.4525C25.8973 25.4525 27.0316 25.4461 28.1725 25.459C28.4174 25.459 28.527 25.3816 28.6107 25.156C29.1199 23.7123 29.6484 22.275 30.1705 20.8312C30.2736 20.5348 30.3768 20.2447 30.4863 19.9482ZM25.6395 17.8471C25.6008 17.7053 25.575 17.5957 25.5363 17.4861C24.9176 15.6621 23.2676 14.4504 21.3404 14.4439C18.1758 14.431 15.0047 14.4439 11.84 14.4375C10.9248 14.4375 10.074 14.6502 9.30059 15.14C8.29512 15.7717 7.65703 16.6805 7.34121 17.8535C13.4449 17.8471 19.5164 17.8471 25.6395 17.8471Z" fill="#FCDCD9"/><path d="M17.0801 0C17.6795 0.186914 18.3111 0.30293 18.8783 0.560742C22.1138 2.04961 23.0291 6.39375 20.6701 9.05566C19.1683 10.7443 17.267 11.376 15.0885 10.8023C12.9679 10.2416 11.6273 8.8043 11.1246 6.65156C10.4092 3.58359 12.5941 0.464062 15.7072 0.0644531C15.7781 0.0580078 15.849 0.0257813 15.9199 0.00644531C16.3066 0 16.6933 0 17.0801 0ZM19.9289 5.53008C19.9353 3.62227 18.4078 2.06895 16.5193 2.0625C14.6373 2.05605 13.0775 3.58359 13.0711 5.45273C13.0646 7.37988 14.5793 8.9332 16.4935 8.94609C18.3562 8.95254 19.9224 7.39922 19.9289 5.53008Z" fill="#FCDCD9"/></svg>
