<svg width="19" height="19" viewBox="0 0 19 19" fill="none" xmlns="http://www.w3.org/2000/svg"><path d="M7.34667 0C8.018 0 8.702 0 9.37333 0C9.48733 0.038 9.614 0.0886667 9.728 0.114C14.5287 0.912 17.708 5.7 16.4413 10.3993C16.1247 11.5773 15.4787 12.654 15.0227 13.718C16.302 15.048 17.6573 16.454 19.0127 17.86C19.0127 18.24 19.0127 18.62 19.0127 19C18.6327 19 18.2527 19 17.8727 19C16.454 17.632 15.0353 16.2767 13.604 14.896C13.49 14.972 13.3253 15.0987 13.148 15.2127C9.082 18.0373 3.47067 16.7707 1.102 12.4387C0.57 11.5013 0.354667 10.3993 0 9.37333C0 8.65133 0 7.942 0 7.22C0.038 7.106 0.101333 6.992 0.126667 6.878C0.544667 4.69933 1.64667 2.95133 3.42 1.62133C4.598 0.747333 5.95333 0.316667 7.34667 0ZM8.398 1.54533C4.69933 1.52 1.558 4.58533 1.53267 8.246C1.50733 12.0713 4.57267 15.1873 8.34733 15.2C12.0207 15.2127 15.162 12.122 15.1873 8.46133C15.2127 4.68667 12.1473 1.57067 8.398 1.54533Z" fill="black"/></svg>
