<svg width="11" height="10" viewBox="0 0 11 10" fill="none" xmlns="http://www.w3.org/2000/svg"><path d="M10.1005 0.939883C9.53148 0.342633 8.73441 0.00231312 7.89818 5.93485e-05C7.06195 5.93485e-05 6.26488 0.340379 5.69358 0.939883L5.50007 1.14047L5.30656 0.939883C4.17546 -0.25011 2.27264 -0.319977 1.054 0.786627C1.00101 0.83621 0.948029 0.885793 0.897349 0.939883C-0.30286 2.20651 -0.30286 4.16278 0.897349 5.42715L5.21441 9.88061C5.36415 10.0339 5.61295 10.0406 5.7696 9.89639C5.7742 9.89188 5.77881 9.88737 5.78572 9.88061L10.1005 5.42715C11.3007 4.16278 11.3007 2.20651 10.1005 0.939883ZM9.53148 4.89751L5.50007 9.05573L1.46866 4.89751C0.551799 3.93064 0.551799 2.43639 1.46866 1.46952C2.30028 0.586041 3.70782 0.53195 4.60855 1.34556C4.65232 1.38613 4.69379 1.4267 4.73525 1.46952L5.21441 1.9631C5.37337 2.11635 5.62677 2.11635 5.78572 1.9631L6.26488 1.46952C7.09651 0.586041 8.50405 0.53195 9.40478 1.34556C9.44855 1.38613 9.49001 1.4267 9.53148 1.46952C10.4552 2.43864 10.4622 3.93515 9.53148 4.89751Z" fill="#F04C39"/></svg>
