<svg width="26" height="26" viewBox="0 0 26 26" fill="none" xmlns="http://www.w3.org/2000/svg"><path d="M3.80859 26C9.91758 26 16.0316 26 22.1406 26C22.1863 25.9847 22.2371 25.9644 22.2828 25.9542C24.0449 25.6902 25.4668 24.38 25.8832 22.6484C25.9238 22.4808 25.9594 22.3082 26 22.1355C26 18.6671 26 15.1937 26 11.7253C25.9848 11.6796 25.9645 11.6339 25.9543 11.5832C25.802 10.5269 25.3094 9.65855 24.5223 8.94761C21.6582 6.35776 18.8043 3.75269 15.9301 1.173C15.5543 0.832764 15.0922 0.568701 14.6352 0.345264C14.2695 0.167529 13.848 0.106592 13.452 -0.00512695C13.1473 -0.00512695 12.8426 -0.00512695 12.5379 -0.00512695C12.5074 0.0101074 12.477 0.0304199 12.4465 0.035498C11.502 0.157373 10.6945 0.573779 9.99375 1.20854C7.12969 3.82378 4.25547 6.43394 1.38125 9.03901C0.837891 9.53159 0.446875 10.1257 0.223436 10.8265C0.126953 11.121 0.0761719 11.4308 0 11.7304C0 15.1328 0 18.5351 0 21.9375C0.015234 22.0187 0.0406246 22.1 0.0507812 22.1812C0.345312 23.8417 1.19336 25.0757 2.79297 25.7257C3.11797 25.8527 3.46836 25.9085 3.80859 26ZM13.0508 23.5066C10.207 23.5066 7.36328 23.5066 4.51953 23.5066C3.51406 23.5066 2.74219 22.7855 2.73711 21.8156C2.72695 18.6417 2.73203 15.4679 2.73711 12.2941C2.73711 11.7152 2.98594 11.2175 3.40742 10.8367C6.2207 8.27222 9.0543 5.72808 11.8574 3.14839C12.6141 2.44761 13.6906 2.6355 14.2797 3.16362C15.1328 3.9355 15.9859 4.70737 16.8391 5.48433C18.8297 7.29214 20.8203 9.10503 22.8211 10.9027C23.0902 11.1464 23.2984 11.4054 23.3543 11.766C23.3898 11.9894 23.4051 12.2179 23.4102 12.4464C23.4152 15.5035 23.4152 18.5554 23.4102 21.6125C23.4102 22.7855 22.684 23.5117 21.5109 23.5117C18.6875 23.5066 15.8691 23.5066 13.0508 23.5066Z" fill="#FCDCD9"/></svg>
