<svg width="28" height="28" viewBox="0 0 28 28" fill="none" xmlns="http://www.w3.org/2000/svg"><path d="M28 16.6032C28 14.8691 28 13.1309 28 11.3968C27.8524 11.0155 27.5613 10.8351 27.1719 10.7572C26.5693 10.6425 25.9748 10.4949 25.3722 10.3719C25.2533 10.3473 25.1877 10.2981 25.1426 10.1792C24.9663 9.72416 24.7777 9.26911 24.581 8.82225C24.5236 8.69927 24.5359 8.61728 24.6056 8.50659C24.9622 7.96545 25.3107 7.4202 25.6592 6.87086C25.9297 6.44861 25.8928 6.07555 25.5444 5.72298C24.4621 4.6325 23.3757 3.54612 22.2893 2.45974C21.9368 2.10717 21.5432 2.06618 21.125 2.33675C20.5757 2.68931 20.0223 3.04597 19.477 3.40673C19.3827 3.46823 19.3089 3.48053 19.1982 3.43133C18.7432 3.23045 18.284 3.04187 17.8208 2.85739C17.706 2.8123 17.6527 2.7508 17.6281 2.62782C17.5051 2.03338 17.3575 1.44304 17.251 0.848608C17.1772 0.446852 16.9886 0.155783 16.6073 -1.90735e-06C14.8732 -1.90735e-06 13.135 -1.90735e-06 11.4009 -1.90735e-06C11.0155 0.168081 10.8392 0.471449 10.7654 0.881405C10.663 1.46354 10.5113 2.04158 10.3924 2.62372C10.3637 2.7549 10.3063 2.8164 10.1874 2.86559C9.73646 3.04187 9.28961 3.22635 8.84685 3.42313C8.72797 3.47643 8.64597 3.48053 8.53119 3.40673C7.99004 3.04597 7.4448 2.69751 6.89956 2.34905C6.47731 2.07848 6.08785 2.11127 5.73119 2.46383C4.6407 3.55022 3.55842 4.6366 2.47204 5.72709C2.11947 6.08375 2.08258 6.44861 2.35315 6.87496C2.70161 7.4202 3.05007 7.96955 3.40673 8.51069C3.48053 8.62138 3.48463 8.70747 3.43133 8.82635C3.23455 9.27731 3.04597 9.72826 2.86969 10.1874C2.8246 10.3063 2.759 10.3555 2.64012 10.3801C2.05388 10.5031 1.46764 10.6466 0.877306 10.7572C0.455051 10.8269 0.147584 11.0237 0 11.4378C0 13.1473 0 14.8527 0 16.5622C0.155783 16.9599 0.446852 17.1608 0.869107 17.2346C1.47174 17.3411 2.07028 17.4846 2.66881 17.624C2.74261 17.6404 2.8287 17.7183 2.85739 17.7921C3.05827 18.2471 3.23865 18.7104 3.43543 19.1654C3.48463 19.2802 3.48463 19.3581 3.41493 19.4647C3.06237 20.0018 2.71801 20.5429 2.37365 21.084C2.07848 21.5473 2.11127 21.9081 2.50073 22.2975C3.57072 23.3716 4.6448 24.4416 5.71889 25.5116C6.08785 25.8805 6.46091 25.9215 6.89956 25.6387C7.4448 25.2902 7.99004 24.9376 8.53939 24.5933C8.60498 24.5523 8.71977 24.5318 8.79356 24.5605C9.26911 24.7449 9.74056 24.9417 10.2079 25.1467C10.2776 25.1795 10.3555 25.2656 10.376 25.3394C10.5113 25.9174 10.6507 26.4955 10.7572 27.0776C10.831 27.5081 11.0073 27.8401 11.4378 28C13.1473 28 14.8527 28 16.5622 28C16.9927 27.8524 17.1772 27.5286 17.2551 27.1022C17.3616 26.5242 17.5051 25.9543 17.6199 25.3804C17.6486 25.241 17.706 25.1754 17.8372 25.1262C18.2881 24.9499 18.735 24.7654 19.1777 24.5687C19.3007 24.5154 19.3827 24.5195 19.4934 24.5933C20.0223 24.9417 20.5593 25.282 21.0963 25.6223C21.5555 25.9174 21.9245 25.8846 22.3098 25.4993C23.3839 24.4293 24.458 23.3593 25.528 22.2852C25.8969 21.9163 25.9338 21.5391 25.6551 21.1045C25.3025 20.5511 24.9458 20.0059 24.5974 19.4483C24.5564 19.3827 24.5482 19.2679 24.5769 19.1941C24.7613 18.7268 24.9663 18.2635 25.1508 17.7962C25.1959 17.6855 25.2492 17.6404 25.364 17.6158C25.9502 17.4969 26.5365 17.3534 27.1268 17.2428C27.5286 17.169 27.836 16.9927 28 16.6032ZM6.506 4.08316C7.04305 4.43162 7.58829 4.77189 8.12123 5.12445C8.441 5.33353 8.75666 5.34993 9.08463 5.16545C9.76515 4.78419 10.4826 4.48082 11.2328 4.27584C11.5977 4.17745 11.8108 3.93968 11.8887 3.57071C12.0117 2.99678 12.1388 2.42284 12.2618 1.8489C12.2864 1.73411 12.311 1.65622 12.4627 1.65622C13.4876 1.66442 14.5124 1.66032 15.5373 1.65622C15.6685 1.65622 15.7136 1.70542 15.7382 1.8243C15.8571 2.39004 15.9883 2.95578 16.1031 3.52562C16.181 3.93148 16.4105 4.18155 16.8082 4.28814C17.542 4.48492 18.2389 4.78419 18.9031 5.15315C19.2474 5.34583 19.5754 5.33353 19.9034 5.11625C20.3871 4.79648 20.8791 4.48902 21.3628 4.16925C21.4817 4.09136 21.5473 4.08316 21.6539 4.19385C22.3672 4.91947 23.0846 5.64099 23.8102 6.35842C23.9127 6.45681 23.9004 6.5224 23.8307 6.63309C23.5192 7.10454 23.2199 7.58829 22.9042 8.05974C22.6665 8.4164 22.646 8.76076 22.8551 9.13382C23.224 9.78975 23.511 10.4826 23.7119 11.2082C23.8225 11.6018 24.0726 11.8149 24.4662 11.8928C25.036 12.0076 25.5977 12.1429 26.1675 12.2577C26.2987 12.2864 26.3438 12.3397 26.3438 12.475C26.3397 13.4876 26.3356 14.496 26.3438 15.5086C26.3438 15.6562 26.2905 15.7095 26.1552 15.7382C25.5936 15.853 25.036 15.9883 24.4744 16.099C24.0685 16.181 23.8225 16.4064 23.7078 16.8C23.4946 17.5461 23.1994 18.2553 22.8223 18.9277C22.6501 19.2351 22.6624 19.5426 22.851 19.8378C23.0067 20.0837 23.1666 20.3297 23.3265 20.5798C23.5233 20.8873 23.7242 21.1947 23.8963 21.4694C23.0805 22.2852 22.2893 23.0846 21.4899 23.8881C20.9529 23.5438 20.4035 23.1912 19.8501 22.8428C19.5549 22.6583 19.2556 22.6542 18.9359 22.8059C18.325 23.0887 17.7224 23.429 17.0788 23.6012C16.39 23.7857 16.1072 24.1833 16.017 24.8392C15.9473 25.3353 15.8079 25.8231 15.7013 26.3192C14.5575 26.3192 13.4343 26.3192 12.3028 26.3192C12.1634 25.6919 12.0199 25.0729 11.8969 24.4498C11.8149 24.0439 11.569 23.8307 11.1877 23.6914C10.5031 23.4413 9.82665 23.1707 9.17072 22.8551C8.77716 22.6665 8.441 22.6501 8.08023 22.8878C7.55549 23.2322 7.02255 23.5643 6.5101 23.8922C5.70659 23.0846 4.91127 22.2893 4.10366 21.4817C4.44392 20.9529 4.79649 20.3994 5.15315 19.8501C5.34583 19.5467 5.36223 19.2351 5.18594 18.9195C4.80059 18.2307 4.50132 17.5092 4.28404 16.7508C4.18155 16.3982 3.94788 16.1851 3.58712 16.1072C2.95578 15.9678 2.32445 15.8284 1.68492 15.689C1.68492 14.5534 1.68492 13.4302 1.68492 12.2946C2.30805 12.1593 2.92709 12.0158 3.55022 11.8887C3.93558 11.8108 4.18565 11.6018 4.29634 11.2164C4.50542 10.4703 4.79649 9.76105 5.17775 9.08463C5.36633 8.74846 5.34993 8.4205 5.14085 8.10073C4.82108 7.60878 4.50132 7.11684 4.18565 6.62079C4.15285 6.57159 4.12826 6.5183 4.09956 6.4691C4.90307 5.67379 5.69839 4.88667 6.506 4.08316Z" fill="#FCDCD9"/><path d="M14.0123 20.6946C17.7142 20.6905 20.7192 17.6609 20.7028 13.9385C20.6823 10.2284 17.583 7.18243 13.7909 7.29311C10.335 7.3956 7.21932 10.2571 7.31361 14.2091C7.3915 17.7224 10.2981 20.6782 14.0123 20.6946ZM14.0041 8.97393C16.7549 8.97393 19.022 11.2164 19.0261 13.9426C19.0302 16.7426 16.7918 19.022 14.0123 19.0097C11.1057 18.9974 9.03953 16.6647 8.98213 14.1476C8.91654 11.1795 11.2902 8.95344 14.0041 8.97393Z" fill="#FCDCD9"/></svg>
