<svg width="12" height="9" viewBox="0 0 12 9" fill="none" xmlns="http://www.w3.org/2000/svg"><g clip-path="url(#clip0_23_83)"><path d="M12 4.63197C11.9831 6.0915 11.4502 7.5088 10.3928 8.74927C10.1532 9.02903 9.78945 9.07918 9.51313 8.87595C9.24246 8.67273 9.21144 8.33226 9.44829 8.05777C10.0996 7.29765 10.5338 6.43988 10.703 5.47654C10.9906 3.85073 10.5987 2.37801 9.53851 1.061C9.43137 0.929033 9.30731 0.804986 9.29321 0.625514C9.27065 0.37742 9.41163 0.147802 9.65129 0.0527868C9.89659 -0.0475064 10.1814 0.00264022 10.3505 0.211145C10.6071 0.530499 10.8609 0.852494 11.0723 1.19824C11.6955 2.21701 11.9943 3.32551 12 4.63197Z" fill="#F04C39"/><path d="M0 4.41036C0.0225564 2.8954 0.555451 1.4781 1.62406 0.237632C1.85244 -0.0262974 2.21617 -0.0738048 2.48402 0.124142C2.75188 0.31945 2.79417 0.667838 2.56579 0.931767C1.90883 1.69452 1.46617 2.5523 1.29135 3.51828C0.995301 5.15464 1.40132 6.63265 2.46992 7.95494C2.56579 8.0737 2.66447 8.21095 2.69831 8.35347C2.76034 8.60948 2.60244 8.84966 2.35432 8.95259C2.10056 9.05552 1.81015 8.99746 1.63534 8.77576C1.39004 8.46168 1.1391 8.14497 0.933271 7.80977C0.301692 6.78309 0.0056391 5.66931 0 4.41036Z" fill="#F04C39"/><path d="M9.60905 4.60819C9.56675 5.26538 9.39476 5.88298 9.04795 6.4557C8.91262 6.68004 8.67013 6.78298 8.4051 6.73811C8.15416 6.69588 7.94551 6.51641 7.92577 6.26831C7.9145 6.14163 7.95115 5.99383 8.01318 5.88034C8.30923 5.36303 8.43893 4.8167 8.38818 4.23077C8.34871 3.80057 8.20209 3.40204 7.96807 3.02989C7.79889 2.75805 7.89758 2.42022 8.18517 2.2645C8.46431 2.11142 8.84213 2.19324 8.99438 2.45717C9.25378 2.90057 9.45961 3.36772 9.53574 3.87183C9.57239 4.11992 9.58649 4.36538 9.60905 4.60819Z" fill="#F04C39"/><path d="M2.39661 4.57387C2.4107 3.79 2.5827 3.14337 2.94642 2.54161C3.07612 2.32519 3.28195 2.2249 3.54416 2.25393C3.79228 2.28032 3.95582 2.41229 4.03477 2.63135C4.09398 2.79763 4.06296 2.95862 3.97274 3.1117C3.67104 3.61581 3.55262 4.15686 3.60056 4.73223C3.63721 5.1466 3.77255 5.5293 3.98965 5.89088C4.12217 6.11258 4.11371 6.329 3.94736 6.53223C3.69078 6.84367 3.18044 6.80936 2.96334 6.46097C2.6983 6.03604 2.52349 5.57944 2.45018 5.09117C2.42198 4.89323 2.40788 4.68736 2.39661 4.57387Z" fill="#F04C39"/><path d="M7.19833 4.49996C7.19833 5.11492 6.6598 5.62166 6.00002 5.62694C5.34025 5.63222 4.78762 5.11228 4.79326 4.49468C4.79889 3.87709 5.34025 3.37298 5.9972 3.37562C6.6598 3.37826 7.19833 3.88237 7.19833 4.49996Z" fill="#F04C39"/></g><defs><clipPath id="clip0_23_83"><rect width="12" height="9" fill="white"/></clipPath></defs></svg>
