<svg width="33" height="31" viewBox="0 0 33 31" fill="none" xmlns="http://www.w3.org/2000/svg"><path d="M0 17.918C0.0580078 17.6924 0.116016 17.4604 0.186914 17.2413C0.431836 16.4098 0.915234 15.7395 1.5791 15.1981C1.66934 15.1208 1.76602 15.0499 1.85625 14.979C1.8627 14.9725 1.8627 14.9596 1.8627 14.9467C0.238476 13.0711 0.567188 10.9442 1.39863 9.71313C2.36543 8.28227 4.06699 7.57974 5.71055 7.90845C7.32832 8.23716 8.9332 9.60356 9.10723 11.9625C9.19746 11.8788 9.28125 11.8143 9.35215 11.7434C10.3512 10.7508 11.376 9.78403 12.3363 8.75278C13.4707 7.53462 15.2109 7.39927 16.4227 8.39184C16.9125 8.18559 17.3508 7.92778 17.8277 7.81177C18.8719 7.56684 19.7742 7.88911 20.5348 8.63677C21.5725 9.66802 22.6037 10.6993 23.6414 11.7305C23.7123 11.8014 23.7961 11.8723 23.8799 11.9497C24.0604 9.51333 25.7555 8.19849 27.3023 7.89556C28.9459 7.57329 30.6539 8.28227 31.6014 9.72602C32.6584 11.3374 32.5102 12.9809 31.1309 14.9338C31.3758 15.153 31.6336 15.3657 31.8592 15.5977C32.4393 16.2036 32.7873 16.9319 32.9291 17.7569C32.9484 17.8471 32.9742 17.9438 32.9936 18.034C32.9936 21.8819 32.9936 25.7233 32.9936 29.5711C32.7357 30.1254 32.291 30.293 31.698 30.2866C29.2939 30.2672 26.8834 30.2801 24.4793 30.2801C23.5963 30.2801 23.2611 29.945 23.2611 29.0491C23.2611 25.9875 23.2611 22.926 23.2676 19.8645C23.2676 19.6583 23.216 19.51 23.0678 19.3553C20.9537 17.2477 18.8396 15.1336 16.732 13.026C16.6611 12.9551 16.5773 12.8842 16.5 12.8133C16.442 12.8649 16.4033 12.8971 16.3646 12.9358C14.2055 15.095 12.0463 17.2477 9.9 19.4133C9.79688 19.5165 9.74531 19.7098 9.74531 19.8645C9.73887 22.926 9.73887 25.9875 9.73887 29.0491C9.73887 29.9385 9.40371 30.2801 8.5207 30.2801C6.1166 30.2801 3.70605 30.2672 1.30195 30.2866C0.696094 30.3124 0.257812 30.1448 0 29.584C0 25.6975 0 21.8045 0 17.918ZM7.79883 28.353C7.79883 28.1983 7.79883 28.0694 7.79883 27.9469C7.79883 25.1883 7.81816 22.4297 7.78594 19.6647C7.77949 19.0202 7.9793 18.5561 8.43691 18.1114C10.6541 15.9264 12.8455 13.7157 15.0498 11.5114C15.14 11.4211 15.2367 11.3309 15.3141 11.2278C15.7137 10.725 15.5268 10.0032 14.9402 9.74536C14.5342 9.57134 14.1668 9.66157 13.7801 10.0483C11.8852 11.9368 9.99023 13.8188 8.1082 15.7202C7.77305 16.0553 7.41211 16.2165 6.93516 16.21C5.96836 16.1971 5.00156 16.1778 4.03477 16.2293C2.79082 16.2938 1.92715 17.2606 1.92715 18.5045C1.92715 21.6692 1.92715 24.8403 1.92715 28.0049C1.92715 28.1145 1.92715 28.2305 1.92715 28.3465C3.90586 28.353 5.82656 28.353 7.79883 28.353ZM31.0664 28.3465C31.0664 27.47 31.0664 26.6321 31.0664 25.7942C31.0664 23.4094 31.0664 21.0247 31.0664 18.6399C31.0664 17.1639 30.1383 16.2229 28.6559 16.21C27.7857 16.2036 26.9156 16.1971 26.0455 16.21C25.5879 16.2165 25.227 16.0682 24.8982 15.7331C23.0291 13.851 21.1471 11.9819 19.2715 10.1063C19.1812 10.0161 19.091 9.91938 18.9879 9.84849C18.6334 9.59067 18.1887 9.60356 17.8535 9.86782C17.5055 10.1321 17.3637 10.6026 17.5506 10.9893C17.6344 11.1698 17.7762 11.3245 17.918 11.4663C20.1803 13.735 22.4361 16.0038 24.7113 18.2532C25.0594 18.5948 25.2141 18.9622 25.2141 19.4456C25.2012 22.2815 25.2076 25.1174 25.2076 27.9534C25.2076 28.0758 25.2076 28.2047 25.2076 28.3336C27.1734 28.3465 29.1006 28.3465 31.0664 28.3465ZM4.85332 14.27C6.07148 14.3022 7.12207 13.3032 7.1543 12.0915C7.18652 10.8346 6.20039 9.79692 4.93711 9.77114C3.73828 9.74536 2.68125 10.7186 2.64902 11.8852C2.60391 13.2065 3.55781 14.2377 4.85332 14.27ZM28.1402 9.77114C26.9414 9.73892 25.8844 10.7186 25.8457 11.8788C25.807 13.2 26.7609 14.2313 28.0564 14.27C29.2746 14.3022 30.3252 13.3096 30.3574 12.0979C30.3832 10.8346 29.4035 9.80337 28.1402 9.77114Z" fill="#FCDCD9"/><path d="M22.333 2.59758C22.2621 2.78449 22.2105 2.98429 22.1139 3.15832C21.7207 3.86086 21.3211 4.55695 20.915 5.25304C20.6057 5.78156 20.0449 5.94914 19.5744 5.67843C19.0846 5.39484 18.9363 4.84054 19.2328 4.31203C19.6453 3.57082 20.0707 2.8425 20.5025 2.10773C20.7281 1.72746 21.16 1.54699 21.5467 1.65656C21.9978 1.77902 22.2943 2.1464 22.333 2.59758Z" fill="#FCDCD9"/><path d="M13.9154 4.76961C13.9154 5.24012 13.6318 5.62684 13.2387 5.75574C12.8455 5.87821 12.4008 5.76219 12.1881 5.4077C11.7047 4.60848 11.2342 3.80281 10.7894 2.98426C10.5574 2.55887 10.7508 2.02391 11.1568 1.77899C11.5693 1.52762 12.1365 1.57918 12.3943 1.99168C12.91 2.80379 13.3676 3.65457 13.8445 4.49246C13.9025 4.5827 13.9025 4.7116 13.9154 4.76961Z" fill="#FCDCD9"/><path d="M17.4668 2.28167C17.4668 2.68772 17.4732 3.09377 17.4668 3.50627C17.4539 4.07991 17.0478 4.5053 16.5129 4.51174C15.965 4.51819 15.5461 4.08635 15.5396 3.49983C15.5332 2.67483 15.5332 1.84983 15.5396 1.02483C15.5461 0.425415 15.9586 0.00646973 16.5064 0.00646973C17.0607 0.00646973 17.4603 0.43186 17.4668 1.03772C17.4732 1.44377 17.4668 1.86272 17.4668 2.28167Z" fill="#FCDCD9"/></svg>
