<svg width="33" height="28" viewBox="0 0 33 28" fill="none" xmlns="http://www.w3.org/2000/svg"><path d="M0 18.6098C0.99 15.6838 3.124 14.5398 6.094 14.7598C6.424 14.7818 6.754 14.7158 7.084 14.7598C8.492 14.9798 9.592 14.7378 10.56 13.4838C11.352 12.4498 12.694 12.2738 13.97 12.2518C15.576 12.2298 17.204 12.2518 18.81 12.2518C20.68 12.2298 22.242 12.8678 23.386 14.4078C23.562 14.6278 23.958 14.8038 24.266 14.8038C25.146 14.8258 26.026 14.8038 26.906 14.7378C29.898 14.5178 32.01 15.6838 33.022 18.5878C33.022 20.8538 33.022 23.1418 33.022 25.4078C32.362 27.1018 31.108 27.6738 29.326 27.6738C20.79 27.6298 12.276 27.6298 3.74 27.6738C1.958 27.6738 0.704 27.1018 0.044 25.4078C0 23.1418 0 20.8758 0 18.6098ZM10.78 25.6718C14.652 25.6718 18.414 25.6718 22.22 25.6718C22.22 22.6358 22.286 19.6658 22.198 16.7178C22.154 15.3318 20.922 14.2978 19.426 14.2318C17.49 14.1658 15.532 14.1658 13.596 14.2318C12.056 14.2758 10.846 15.3538 10.802 16.8058C10.714 19.7318 10.78 22.6578 10.78 25.6718ZM8.756 25.7378C8.756 22.6798 8.756 19.7538 8.756 16.7398C7.282 16.7398 5.874 16.6298 4.466 16.7618C2.926 16.9158 2.002 18.0378 1.958 19.5998C1.914 21.2058 1.958 22.8118 1.936 24.4178C1.914 25.2978 2.332 25.7158 3.168 25.7378C4.994 25.7598 6.82 25.7378 8.756 25.7378ZM24.244 25.7378C26.202 25.7378 28.05 25.7598 29.92 25.7378C30.646 25.7378 31.064 25.3418 31.064 24.5718C31.042 22.8558 31.086 21.1398 31.042 19.4238C30.998 18.2138 30.36 17.1798 29.216 16.9598C27.61 16.6518 25.938 16.7178 24.266 16.6078C24.244 19.8198 24.244 22.7018 24.244 25.7378Z" fill="#FCDCD9"/><path d="M16.544 0.305927C19.712 0.327927 22.22 2.90193 22.22 6.09193C22.198 9.23793 19.602 11.8119 16.456 11.7899C13.288 11.7459 10.758 9.14993 10.78 5.98193C10.802 2.83593 13.376 0.283927 16.544 0.305927ZM16.456 9.80993C18.546 9.83193 20.24 8.18193 20.262 6.09193C20.306 3.97993 18.7 2.30793 16.588 2.26393C14.41 2.21993 12.738 3.84793 12.716 6.00393C12.716 8.11593 14.366 9.80993 16.456 9.80993Z" fill="#FCDCD9"/><path d="M6.44601 14.2098C4.09201 14.2098 2.20001 12.3398 2.15601 9.98585C2.13401 7.58785 4.04801 5.62985 6.42401 5.60785C8.77801 5.58585 10.758 7.58785 10.736 9.96385C10.714 12.3178 8.80001 14.1878 6.44601 14.2098ZM6.49001 7.58785C5.17001 7.56585 4.11401 8.59985 4.09201 9.89785C4.07001 11.2178 5.10401 12.2518 6.44601 12.2518C7.72201 12.2518 8.75601 11.2618 8.80001 10.0078C8.84401 8.68785 7.78801 7.60985 6.49001 7.58785Z" fill="#FCDCD9"/><path d="M26.532 14.2099C24.134 14.2099 22.22 12.2519 22.242 9.87592C22.286 7.54392 24.244 5.62992 26.554 5.65192C28.93 5.67392 30.866 7.63192 30.822 10.0299C30.8 12.3399 28.908 14.2099 26.532 14.2099ZM28.886 9.89792C28.864 8.57792 27.83 7.56592 26.488 7.58792C25.19 7.60992 24.156 8.70992 24.2 10.0079C24.244 11.2619 25.278 12.2519 26.554 12.2519C27.896 12.2519 28.908 11.2399 28.886 9.89792Z" fill="#FCDCD9"/></svg>
