<svg width="23" height="24" viewBox="0 0 23 24" fill="none" xmlns="http://www.w3.org/2000/svg"><g clip-path="url(#clip0_16_46)"><path d="M10.0101 24.0001C8.85511 23.6321 7.66661 23.3761 6.56181 22.8961C-0.100491 20.0161 -2.12596 11.5041 2.5276 6.11208C3.61567 4.86408 4.9046 3.87208 6.42789 3.15208C7.34856 2.72008 7.9177 2.80008 8.25249 3.39208C8.57054 3.98408 8.26923 4.48008 7.38204 4.92808C4.18481 6.52808 2.32673 9.02408 2.12586 12.4801C1.92498 16.0801 3.51523 18.9121 6.76268 20.7681C10.7802 23.0721 16.0029 22.0641 18.882 18.5761C21.7947 15.0401 21.5436 9.96808 18.2292 6.75208C17.4592 6.01608 16.4716 5.45608 15.5342 4.89608C14.7809 4.44808 14.4796 4.01608 14.7474 3.44008C15.032 2.83208 15.6346 2.70408 16.4716 3.08808C21.008 5.15208 23.5523 9.72808 22.8828 14.6241C22.2467 19.1841 18.4133 22.9441 13.4752 23.8241C13.2576 23.8561 13.0567 23.9361 12.8391 24.0001C11.9017 24.0001 10.9475 24.0001 10.0101 24.0001Z" fill="#FCDCD9"/><path d="M11.8515 0.00013086C12.3872 0.304131 12.5546 0.752131 12.5546 1.32813C12.5378 4.12813 12.5546 6.91213 12.5378 9.71213C12.5378 10.5601 12.1696 10.9761 11.5 10.9761C10.8304 10.9761 10.4789 10.5601 10.4789 9.69613C10.4789 6.88013 10.4956 4.04813 10.4622 1.23213C10.4622 0.656131 10.663 0.256131 11.1652 -0.0158691C11.3996 0.00013086 11.6172 0.00013086 11.8515 0.00013086Z" fill="#FCDCD9"/></g><defs><clipPath id="clip0_16_46"><rect width="23" height="24" fill="white"/></clipPath></defs></svg>
