<svg width="22" height="22" viewBox="0 0 22 22" fill="none" xmlns="http://www.w3.org/2000/svg"><g clip-path="url(#clip0_23_151)"><path d="M3.22266 3.22266C5.29805 1.14297 8.06094 0 11 0C13.9391 0 16.702 1.14297 18.7773 3.22266C20.857 5.29805 22 8.06094 22 11C22 13.9391 20.857 16.702 18.7773 18.7773C16.6977 20.857 13.9391 22 11 22C8.06094 22 5.29805 20.857 3.22266 18.7773C1.14297 16.6977 0 13.9391 0 11C0 8.06094 1.14297 5.29805 3.22266 3.22266ZM11 20.6895C16.3453 20.6895 20.6895 16.3453 20.6895 11C20.6895 5.65469 16.3453 1.31055 11 1.31055C5.65469 1.31055 1.31055 5.65469 1.31055 11C1.31055 16.3453 5.65469 20.6895 11 20.6895Z" fill="black" fill-opacity="0.2"/><path d="M13.3805 8.09521C14.4547 7.021 16.1992 7.021 17.2692 8.09521C17.527 8.34873 17.527 8.76553 17.2692 9.02334C17.0114 9.27686 16.5989 9.27686 16.341 9.02334C15.7781 8.46045 14.8672 8.46045 14.3043 9.02334C14.1754 9.15225 14.0078 9.2167 13.8403 9.2167C13.6727 9.2167 13.5051 9.15225 13.3762 9.02334C13.1227 8.76553 13.1227 8.34873 13.3805 8.09521Z" fill="black" fill-opacity="0.2"/><path d="M4.7309 8.09521C5.80512 7.021 7.54965 7.021 8.61957 8.09521C8.87738 8.34873 8.87738 8.76553 8.61957 9.02334C8.36176 9.27686 7.94926 9.27686 7.69144 9.02334C7.12855 8.46045 6.21762 8.46045 5.65473 9.02334C5.52582 9.15225 5.35824 9.2167 5.19066 9.2167C5.02308 9.2167 4.85551 9.15225 4.7266 9.02334C4.47738 8.76553 4.47738 8.34873 4.7309 8.09521Z" fill="black" fill-opacity="0.2"/><path d="M5.19491 11.4812H16.8051C17.166 11.4812 17.4582 11.7734 17.4582 12.1343C17.4582 15.6964 14.5621 18.5925 11 18.5925C7.43788 18.5925 4.54179 15.6964 4.54179 12.1343C4.54179 11.7734 4.83397 11.4812 5.19491 11.4812ZM11 17.2863C13.6168 17.2863 15.7867 15.3226 16.109 12.7917H5.891C6.21327 15.3226 8.38319 17.2863 11 17.2863Z" fill="black" fill-opacity="0.2"/></g><defs><clipPath id="clip0_23_151"><rect width="22" height="22" fill="white" transform="matrix(-1 0 0 1 22 0)"/></clipPath></defs></svg>
