<svg width="22" height="22" viewBox="0 0 22 22" fill="none" xmlns="http://www.w3.org/2000/svg"><path d="M3.22266 3.22266C5.29805 1.14297 8.06094 0 11 0C13.9391 0 16.702 1.14297 18.7773 3.22266C20.857 5.29805 22 8.06094 22 11C22 13.9391 20.857 16.702 18.7773 18.7773C16.6977 20.857 13.9391 22 11 22C8.06094 22 5.29805 20.857 3.22266 18.7773C1.14297 16.6977 0 13.9391 0 11C0 8.06094 1.14297 5.29805 3.22266 3.22266ZM11 20.6895C16.3453 20.6895 20.6895 16.3453 20.6895 11C20.6895 5.65469 16.3453 1.31055 11 1.31055C5.65469 1.31055 1.31055 5.65469 1.31055 11C1.31055 16.3453 5.65469 20.6895 11 20.6895Z" fill="black" fill-opacity="0.2"/></svg>
